<mxfile host="app.diagrams.net" agent="Mozilla/5.0 (Windows NT 10.0; Win64; x64) AppleWebKit/537.36 (KHTML, like Gecko) Chrome/131.0.0.0 Safari/537.36" version="25.0.3">
  <diagram name="หน้า-1" id="ZAjImWAuZsFVfzG_FoHn">
    <mxGraphModel dx="2304" dy="637" grid="1" gridSize="10" guides="1" tooltips="1" connect="1" arrows="1" fold="1" page="1" pageScale="1" pageWidth="827" pageHeight="1169" math="0" shadow="0">
      <root>
        <mxCell id="0" />
        <mxCell id="1" parent="0" />
        <mxCell id="0XZKq3eu_mVd3sQ3w_K2-3" value="" style="edgeStyle=orthogonalEdgeStyle;rounded=0;orthogonalLoop=1;jettySize=auto;html=1;" edge="1" parent="1" source="0XZKq3eu_mVd3sQ3w_K2-1" target="0XZKq3eu_mVd3sQ3w_K2-2">
          <mxGeometry relative="1" as="geometry" />
        </mxCell>
        <mxCell id="0XZKq3eu_mVd3sQ3w_K2-1" value="start" style="ellipse;whiteSpace=wrap;html=1;" vertex="1" parent="1">
          <mxGeometry x="350" y="90" width="120" height="80" as="geometry" />
        </mxCell>
        <mxCell id="0XZKq3eu_mVd3sQ3w_K2-7" value="" style="edgeStyle=orthogonalEdgeStyle;rounded=0;orthogonalLoop=1;jettySize=auto;html=1;" edge="1" parent="1" source="0XZKq3eu_mVd3sQ3w_K2-2" target="0XZKq3eu_mVd3sQ3w_K2-6">
          <mxGeometry relative="1" as="geometry" />
        </mxCell>
        <mxCell id="0XZKq3eu_mVd3sQ3w_K2-2" value="สร้างตัวแปร n เพื่อรับค่าจากผู้ใช้" style="whiteSpace=wrap;html=1;" vertex="1" parent="1">
          <mxGeometry x="320" y="260" width="180" height="90" as="geometry" />
        </mxCell>
        <mxCell id="0XZKq3eu_mVd3sQ3w_K2-9" value="" style="edgeStyle=orthogonalEdgeStyle;rounded=0;orthogonalLoop=1;jettySize=auto;html=1;" edge="1" parent="1" source="0XZKq3eu_mVd3sQ3w_K2-6" target="0XZKq3eu_mVd3sQ3w_K2-8">
          <mxGeometry relative="1" as="geometry" />
        </mxCell>
        <mxCell id="0XZKq3eu_mVd3sQ3w_K2-6" value="แสดงข้อความ Input N :" style="shape=parallelogram;perimeter=parallelogramPerimeter;whiteSpace=wrap;html=1;fixedSize=1;" vertex="1" parent="1">
          <mxGeometry x="325" y="460" width="170" height="75" as="geometry" />
        </mxCell>
        <mxCell id="0XZKq3eu_mVd3sQ3w_K2-11" value="" style="edgeStyle=orthogonalEdgeStyle;rounded=0;orthogonalLoop=1;jettySize=auto;html=1;" edge="1" parent="1" source="0XZKq3eu_mVd3sQ3w_K2-8" target="0XZKq3eu_mVd3sQ3w_K2-10">
          <mxGeometry relative="1" as="geometry" />
        </mxCell>
        <mxCell id="0XZKq3eu_mVd3sQ3w_K2-8" value="รับค่าจากผู้ใช้" style="shape=parallelogram;perimeter=parallelogramPerimeter;whiteSpace=wrap;html=1;fixedSize=1;" vertex="1" parent="1">
          <mxGeometry x="350" y="622.5" width="120" height="60" as="geometry" />
        </mxCell>
        <mxCell id="0XZKq3eu_mVd3sQ3w_K2-13" value="" style="edgeStyle=orthogonalEdgeStyle;rounded=0;orthogonalLoop=1;jettySize=auto;html=1;" edge="1" parent="1" source="0XZKq3eu_mVd3sQ3w_K2-10" target="0XZKq3eu_mVd3sQ3w_K2-12">
          <mxGeometry relative="1" as="geometry" />
        </mxCell>
        <mxCell id="0XZKq3eu_mVd3sQ3w_K2-10" value="กำหนด arr[ n ]&amp;nbsp;&amp;nbsp;" style="whiteSpace=wrap;html=1;" vertex="1" parent="1">
          <mxGeometry x="350" y="762.5" width="120" height="60" as="geometry" />
        </mxCell>
        <mxCell id="0XZKq3eu_mVd3sQ3w_K2-15" value="" style="edgeStyle=orthogonalEdgeStyle;rounded=0;orthogonalLoop=1;jettySize=auto;html=1;" edge="1" parent="1" source="0XZKq3eu_mVd3sQ3w_K2-12" target="0XZKq3eu_mVd3sQ3w_K2-14">
          <mxGeometry relative="1" as="geometry" />
        </mxCell>
        <mxCell id="0XZKq3eu_mVd3sQ3w_K2-12" value="int i = 0" style="whiteSpace=wrap;html=1;" vertex="1" parent="1">
          <mxGeometry x="350" y="902.5" width="120" height="60" as="geometry" />
        </mxCell>
        <mxCell id="0XZKq3eu_mVd3sQ3w_K2-17" value="" style="edgeStyle=orthogonalEdgeStyle;rounded=0;orthogonalLoop=1;jettySize=auto;html=1;" edge="1" parent="1" source="0XZKq3eu_mVd3sQ3w_K2-14" target="0XZKq3eu_mVd3sQ3w_K2-16">
          <mxGeometry relative="1" as="geometry" />
        </mxCell>
        <mxCell id="0XZKq3eu_mVd3sQ3w_K2-26" value="" style="edgeStyle=orthogonalEdgeStyle;rounded=0;orthogonalLoop=1;jettySize=auto;html=1;" edge="1" parent="1" source="0XZKq3eu_mVd3sQ3w_K2-14" target="0XZKq3eu_mVd3sQ3w_K2-25">
          <mxGeometry relative="1" as="geometry" />
        </mxCell>
        <mxCell id="0XZKq3eu_mVd3sQ3w_K2-14" value="i &amp;lt; n ?" style="rhombus;whiteSpace=wrap;html=1;" vertex="1" parent="1">
          <mxGeometry x="370" y="1032.5" width="80" height="80" as="geometry" />
        </mxCell>
        <mxCell id="0XZKq3eu_mVd3sQ3w_K2-19" value="" style="edgeStyle=orthogonalEdgeStyle;rounded=0;orthogonalLoop=1;jettySize=auto;html=1;" edge="1" parent="1" source="0XZKq3eu_mVd3sQ3w_K2-16" target="0XZKq3eu_mVd3sQ3w_K2-18">
          <mxGeometry relative="1" as="geometry" />
        </mxCell>
        <mxCell id="0XZKq3eu_mVd3sQ3w_K2-16" value="แสดงข้อความ Input :" style="shape=parallelogram;perimeter=parallelogramPerimeter;whiteSpace=wrap;html=1;fixedSize=1;" vertex="1" parent="1">
          <mxGeometry x="340" y="1202.5" width="140" height="57.5" as="geometry" />
        </mxCell>
        <mxCell id="0XZKq3eu_mVd3sQ3w_K2-21" value="" style="edgeStyle=orthogonalEdgeStyle;rounded=0;orthogonalLoop=1;jettySize=auto;html=1;" edge="1" parent="1" source="0XZKq3eu_mVd3sQ3w_K2-18" target="0XZKq3eu_mVd3sQ3w_K2-20">
          <mxGeometry relative="1" as="geometry" />
        </mxCell>
        <mxCell id="0XZKq3eu_mVd3sQ3w_K2-18" value="รับค่าจากผู้ใช้" style="shape=parallelogram;perimeter=parallelogramPerimeter;whiteSpace=wrap;html=1;fixedSize=1;" vertex="1" parent="1">
          <mxGeometry x="350" y="1338.75" width="120" height="60" as="geometry" />
        </mxCell>
        <mxCell id="0XZKq3eu_mVd3sQ3w_K2-20" value="i++" style="whiteSpace=wrap;html=1;" vertex="1" parent="1">
          <mxGeometry x="350" y="1478.75" width="120" height="60" as="geometry" />
        </mxCell>
        <mxCell id="0XZKq3eu_mVd3sQ3w_K2-22" value="" style="shape=waypoint;sketch=0;fillStyle=solid;size=6;pointerEvents=1;points=[];fillColor=none;resizable=0;rotatable=0;perimeter=centerPerimeter;snapToPoint=1;" vertex="1" parent="1">
          <mxGeometry x="400" y="990" width="20" height="20" as="geometry" />
        </mxCell>
        <mxCell id="0XZKq3eu_mVd3sQ3w_K2-23" style="edgeStyle=orthogonalEdgeStyle;rounded=0;orthogonalLoop=1;jettySize=auto;html=1;exitX=0.5;exitY=1;exitDx=0;exitDy=0;entryX=1.05;entryY=0.85;entryDx=0;entryDy=0;entryPerimeter=0;" edge="1" parent="1" source="0XZKq3eu_mVd3sQ3w_K2-20" target="0XZKq3eu_mVd3sQ3w_K2-22">
          <mxGeometry relative="1" as="geometry">
            <Array as="points">
              <mxPoint x="410" y="1590" />
              <mxPoint x="540" y="1590" />
              <mxPoint x="540" y="1000" />
            </Array>
          </mxGeometry>
        </mxCell>
        <mxCell id="0XZKq3eu_mVd3sQ3w_K2-24" value="T" style="text;html=1;align=center;verticalAlign=middle;resizable=0;points=[];autosize=1;strokeColor=none;fillColor=none;" vertex="1" parent="1">
          <mxGeometry x="415" y="1118" width="30" height="30" as="geometry" />
        </mxCell>
        <mxCell id="0XZKq3eu_mVd3sQ3w_K2-29" value="" style="edgeStyle=orthogonalEdgeStyle;rounded=0;orthogonalLoop=1;jettySize=auto;html=1;" edge="1" parent="1" source="0XZKq3eu_mVd3sQ3w_K2-25" target="0XZKq3eu_mVd3sQ3w_K2-28">
          <mxGeometry relative="1" as="geometry" />
        </mxCell>
        <mxCell id="0XZKq3eu_mVd3sQ3w_K2-25" value="qsort( arr, n, sizeof( int ), compare )" style="whiteSpace=wrap;html=1;" vertex="1" parent="1">
          <mxGeometry x="90" y="1042.5" width="220" height="60" as="geometry" />
        </mxCell>
        <mxCell id="0XZKq3eu_mVd3sQ3w_K2-27" value="F" style="text;html=1;align=center;verticalAlign=middle;resizable=0;points=[];autosize=1;strokeColor=none;fillColor=none;" vertex="1" parent="1">
          <mxGeometry x="325" y="1018" width="30" height="30" as="geometry" />
        </mxCell>
        <mxCell id="0XZKq3eu_mVd3sQ3w_K2-31" value="" style="edgeStyle=orthogonalEdgeStyle;rounded=0;orthogonalLoop=1;jettySize=auto;html=1;" edge="1" parent="1" source="0XZKq3eu_mVd3sQ3w_K2-28" target="0XZKq3eu_mVd3sQ3w_K2-30">
          <mxGeometry relative="1" as="geometry" />
        </mxCell>
        <mxCell id="0XZKq3eu_mVd3sQ3w_K2-28" value="แสดงคำว่า Unique value :" style="shape=parallelogram;perimeter=parallelogramPerimeter;whiteSpace=wrap;html=1;fixedSize=1;" vertex="1" parent="1">
          <mxGeometry x="-210" y="1042.5" width="170" height="60" as="geometry" />
        </mxCell>
        <mxCell id="0XZKq3eu_mVd3sQ3w_K2-33" value="" style="edgeStyle=orthogonalEdgeStyle;rounded=0;orthogonalLoop=1;jettySize=auto;html=1;" edge="1" parent="1" source="0XZKq3eu_mVd3sQ3w_K2-53" target="0XZKq3eu_mVd3sQ3w_K2-32">
          <mxGeometry relative="1" as="geometry" />
        </mxCell>
        <mxCell id="0XZKq3eu_mVd3sQ3w_K2-30" value="int i = 0" style="whiteSpace=wrap;html=1;" vertex="1" parent="1">
          <mxGeometry x="-185" y="1182.5" width="120" height="60" as="geometry" />
        </mxCell>
        <mxCell id="0XZKq3eu_mVd3sQ3w_K2-35" value="" style="edgeStyle=orthogonalEdgeStyle;rounded=0;orthogonalLoop=1;jettySize=auto;html=1;" edge="1" parent="1" source="0XZKq3eu_mVd3sQ3w_K2-32" target="0XZKq3eu_mVd3sQ3w_K2-34">
          <mxGeometry relative="1" as="geometry" />
        </mxCell>
        <mxCell id="0XZKq3eu_mVd3sQ3w_K2-58" style="edgeStyle=orthogonalEdgeStyle;rounded=0;orthogonalLoop=1;jettySize=auto;html=1;exitX=0;exitY=0.5;exitDx=0;exitDy=0;entryX=0.5;entryY=0;entryDx=0;entryDy=0;" edge="1" parent="1" source="0XZKq3eu_mVd3sQ3w_K2-32" target="0XZKq3eu_mVd3sQ3w_K2-55">
          <mxGeometry relative="1" as="geometry">
            <Array as="points">
              <mxPoint x="-490" y="1352" />
              <mxPoint x="-490" y="2280" />
              <mxPoint x="430" y="2280" />
            </Array>
          </mxGeometry>
        </mxCell>
        <mxCell id="0XZKq3eu_mVd3sQ3w_K2-32" value="i &amp;lt; n ?" style="rhombus;whiteSpace=wrap;html=1;" vertex="1" parent="1">
          <mxGeometry x="-165" y="1312.5" width="80" height="80" as="geometry" />
        </mxCell>
        <mxCell id="0XZKq3eu_mVd3sQ3w_K2-44" style="edgeStyle=orthogonalEdgeStyle;rounded=0;orthogonalLoop=1;jettySize=auto;html=1;exitX=0.5;exitY=1;exitDx=0;exitDy=0;entryX=0.5;entryY=0;entryDx=0;entryDy=0;" edge="1" parent="1" source="0XZKq3eu_mVd3sQ3w_K2-34" target="0XZKq3eu_mVd3sQ3w_K2-43">
          <mxGeometry relative="1" as="geometry" />
        </mxCell>
        <mxCell id="0XZKq3eu_mVd3sQ3w_K2-47" style="edgeStyle=orthogonalEdgeStyle;rounded=0;orthogonalLoop=1;jettySize=auto;html=1;exitX=0;exitY=0.5;exitDx=0;exitDy=0;entryX=0.15;entryY=0.15;entryDx=0;entryDy=0;entryPerimeter=0;" edge="1" parent="1" source="0XZKq3eu_mVd3sQ3w_K2-34" target="0XZKq3eu_mVd3sQ3w_K2-48">
          <mxGeometry relative="1" as="geometry">
            <mxPoint x="-360" y="2030" as="targetPoint" />
            <Array as="points">
              <mxPoint x="-380" y="1610" />
              <mxPoint x="-380" y="1910" />
            </Array>
          </mxGeometry>
        </mxCell>
        <mxCell id="0XZKq3eu_mVd3sQ3w_K2-34" value="&amp;nbsp;i == 0 || arr[ i ] != arr[ i - 1 ]&amp;nbsp;&amp;nbsp;" style="rhombus;whiteSpace=wrap;html=1;" vertex="1" parent="1">
          <mxGeometry x="-333.75" y="1500" width="417.5" height="220" as="geometry" />
        </mxCell>
        <mxCell id="0XZKq3eu_mVd3sQ3w_K2-36" value="T" style="text;html=1;align=center;verticalAlign=middle;resizable=0;points=[];autosize=1;strokeColor=none;fillColor=none;" vertex="1" parent="1">
          <mxGeometry x="-125" y="1388" width="30" height="30" as="geometry" />
        </mxCell>
        <mxCell id="0XZKq3eu_mVd3sQ3w_K2-51" value="" style="edgeStyle=orthogonalEdgeStyle;rounded=0;orthogonalLoop=1;jettySize=auto;html=1;" edge="1" parent="1" source="0XZKq3eu_mVd3sQ3w_K2-39" target="0XZKq3eu_mVd3sQ3w_K2-50">
          <mxGeometry relative="1" as="geometry" />
        </mxCell>
        <mxCell id="0XZKq3eu_mVd3sQ3w_K2-39" value="&lt;span style=&quot;color: rgb(0, 0, 0); font-family: Helvetica; font-size: 12px; font-style: normal; font-variant-ligatures: normal; font-variant-caps: normal; font-weight: 400; letter-spacing: normal; orphans: 2; text-align: center; text-indent: 0px; text-transform: none; widows: 2; word-spacing: 0px; -webkit-text-stroke-width: 0px; white-space: normal; background-color: rgb(251, 251, 251); text-decoration-thickness: initial; text-decoration-style: initial; text-decoration-color: initial; display: inline !important; float: none;&quot;&gt;!= arr[ i + 1 ] ) )&lt;/span&gt;" style="whiteSpace=wrap;html=1;" vertex="1" parent="1">
          <mxGeometry x="-185" y="1970" width="120" height="60" as="geometry" />
        </mxCell>
        <mxCell id="0XZKq3eu_mVd3sQ3w_K2-45" style="edgeStyle=orthogonalEdgeStyle;rounded=0;orthogonalLoop=1;jettySize=auto;html=1;exitX=0.5;exitY=1;exitDx=0;exitDy=0;entryX=0.5;entryY=0;entryDx=0;entryDy=0;" edge="1" parent="1" source="0XZKq3eu_mVd3sQ3w_K2-43" target="0XZKq3eu_mVd3sQ3w_K2-39">
          <mxGeometry relative="1" as="geometry" />
        </mxCell>
        <mxCell id="0XZKq3eu_mVd3sQ3w_K2-43" value="&lt;span style=&quot;color: rgb(0, 0, 0); font-family: Helvetica; font-size: 12px; font-style: normal; font-variant-ligatures: normal; font-variant-caps: normal; font-weight: 400; letter-spacing: normal; orphans: 2; text-align: center; text-indent: 0px; text-transform: none; widows: 2; word-spacing: 0px; -webkit-text-stroke-width: 0px; white-space: normal; background-color: rgb(251, 251, 251); text-decoration-thickness: initial; text-decoration-style: initial; text-decoration-color: initial; display: inline !important; float: none;&quot;&gt;&amp;amp;&amp;amp; i == n -1 || arr[ i ]&lt;/span&gt;" style="rounded=0;whiteSpace=wrap;html=1;" vertex="1" parent="1">
          <mxGeometry x="-185" y="1820" width="120" height="60" as="geometry" />
        </mxCell>
        <mxCell id="0XZKq3eu_mVd3sQ3w_K2-46" value="T" style="text;html=1;align=center;verticalAlign=middle;resizable=0;points=[];autosize=1;strokeColor=none;fillColor=none;" vertex="1" parent="1">
          <mxGeometry x="-115" y="1738" width="30" height="30" as="geometry" />
        </mxCell>
        <mxCell id="0XZKq3eu_mVd3sQ3w_K2-48" value="" style="shape=waypoint;sketch=0;fillStyle=solid;size=6;pointerEvents=1;points=[];fillColor=none;resizable=0;rotatable=0;perimeter=centerPerimeter;snapToPoint=1;" vertex="1" parent="1">
          <mxGeometry x="-135" y="1900" width="20" height="20" as="geometry" />
        </mxCell>
        <mxCell id="0XZKq3eu_mVd3sQ3w_K2-49" value="F" style="text;html=1;align=center;verticalAlign=middle;resizable=0;points=[];autosize=1;strokeColor=none;fillColor=none;" vertex="1" parent="1">
          <mxGeometry x="-365" y="1558" width="30" height="30" as="geometry" />
        </mxCell>
        <mxCell id="0XZKq3eu_mVd3sQ3w_K2-50" value="i++" style="whiteSpace=wrap;html=1;" vertex="1" parent="1">
          <mxGeometry x="-185" y="2110" width="120" height="60" as="geometry" />
        </mxCell>
        <mxCell id="0XZKq3eu_mVd3sQ3w_K2-52" value="" style="edgeStyle=orthogonalEdgeStyle;rounded=0;orthogonalLoop=1;jettySize=auto;html=1;" edge="1" parent="1" source="0XZKq3eu_mVd3sQ3w_K2-30" target="0XZKq3eu_mVd3sQ3w_K2-53">
          <mxGeometry relative="1" as="geometry">
            <mxPoint x="-125" y="1243" as="sourcePoint" />
            <mxPoint x="-125" y="1313" as="targetPoint" />
          </mxGeometry>
        </mxCell>
        <mxCell id="0XZKq3eu_mVd3sQ3w_K2-53" value="" style="shape=waypoint;sketch=0;fillStyle=solid;size=6;pointerEvents=1;points=[];fillColor=none;resizable=0;rotatable=0;perimeter=centerPerimeter;snapToPoint=1;" vertex="1" parent="1">
          <mxGeometry x="-135" y="1260" width="20" height="20" as="geometry" />
        </mxCell>
        <mxCell id="0XZKq3eu_mVd3sQ3w_K2-54" style="edgeStyle=orthogonalEdgeStyle;rounded=0;orthogonalLoop=1;jettySize=auto;html=1;exitX=0.5;exitY=1;exitDx=0;exitDy=0;entryX=0.9;entryY=0.85;entryDx=0;entryDy=0;entryPerimeter=0;" edge="1" parent="1" source="0XZKq3eu_mVd3sQ3w_K2-50" target="0XZKq3eu_mVd3sQ3w_K2-53">
          <mxGeometry relative="1" as="geometry">
            <Array as="points">
              <mxPoint x="-125" y="2210" />
              <mxPoint x="140" y="2210" />
              <mxPoint x="140" y="1270" />
            </Array>
          </mxGeometry>
        </mxCell>
        <mxCell id="0XZKq3eu_mVd3sQ3w_K2-55" value="end" style="ellipse;whiteSpace=wrap;html=1;" vertex="1" parent="1">
          <mxGeometry x="370" y="2370" width="120" height="80" as="geometry" />
        </mxCell>
        <mxCell id="0XZKq3eu_mVd3sQ3w_K2-59" value="F" style="text;html=1;align=center;verticalAlign=middle;resizable=0;points=[];autosize=1;strokeColor=none;fillColor=none;" vertex="1" parent="1">
          <mxGeometry x="-205" y="1308" width="30" height="30" as="geometry" />
        </mxCell>
      </root>
    </mxGraphModel>
  </diagram>
</mxfile>
